<svg width="171" height="183" viewBox="0 0 171 183" fill="none" xmlns="http://www.w3.org/2000/svg">
<path d="M3.31546 144.384C5.68716 139.158 10.4331 134.236 16.2085 129.826C27.8393 120.946 43.6452 114.145 52.6416 111.122C64.9117 104.508 69.6371 103.544 81.8914 104.913C94.1457 106.281 98.2198 112.059 99.0684 122.46C99.4283 126.871 97.8846 130.318 95.8879 132.793C94.1179 134.987 91.992 136.417 90.5202 137.078C88.3458 137.685 83.8394 136.534 83.5 132.374C82.342 131.811 81 131.874 78.6652 131.873C76.5 131.874 73.9207 132.171 70.6487 133.934C68.0232 125.305 59.4571 127.6 55.5022 129.826C51.3518 136.874 47.2501 142.612 43.3154 147.257C30.0064 162.971 18.6088 166.197 13.705 165.421C7.26351 164.972 -3.83254 160.136 3.31546 144.384Z" fill="white"/>
<path d="M113.898 83.4089C113.394 87.7474 108.753 96.0848 94.2276 94.7267C79.7019 93.3685 74.3053 87.3701 73.4227 84.5407L74.5574 70.9594C72.1365 68.2435 70.7747 62.6596 70.3964 60.2072C64.9493 61.5654 61.4449 55.6457 61.3188 51.8732C55.4284 50.6592 56.7786 43.042 56.7786 40.4012C52.2393 29.5362 56.9047 20.7838 59.8048 17.7658C59.5022 13.2387 63.7136 10.9751 65.8571 10.4092C66.765 4.97672 73.8009 3.61859 77.2053 3.61859C81.7446 -0.00307989 90.4449 1.73254 94.2276 3.05306C106.938 -3.28487 114.465 6.59235 118.5 11.874C129.785 12.874 131.601 27.8389 129.785 40.9675C127.97 54.096 120.455 56.6236 116.924 56.2464C116.924 63.9424 114.402 69.2618 113.141 70.9594C113.394 74.9206 113.898 82.9562 113.898 83.4089Z" fill="white"/>
<path d="M81.8914 104.913C94.1457 106.281 98.2198 112.059 99.0684 122.46C99.4283 126.871 97.8846 130.318 95.8879 132.793C100.551 132.961 113.583 138.445 116.792 141.805C119.36 144.492 141.591 143.803 152.282 144.543C157.753 144.923 161.867 146.529 164.742 148.913L153.161 118.477C149.79 109.617 143.988 101.865 136.07 96.6525L113.898 83.4089C113.394 87.7474 108.753 96.0848 94.2276 94.7267C79.7019 93.3685 74.3053 87.3701 73.4227 84.5407C52.9061 87.6573 38.6472 99.4207 34.0823 104.913L16.2085 129.826C27.8393 120.946 43.6452 114.145 52.6416 111.122C64.9117 104.508 69.6371 103.544 81.8914 104.913Z" fill="white"/>
<path d="M41.8154 180.373L135.081 181.873V170.986C144.476 177.731 162.924 178.874 167.282 170.543C171.641 162.213 170.5 155.61 164.742 148.913C161.867 146.529 157.753 144.923 152.282 144.543C141.591 143.803 119.36 144.492 116.792 141.805C113.583 138.445 100.551 132.961 95.8879 132.793C94.1179 134.987 91.992 136.417 90.5202 137.078C88.3458 137.685 83.8394 136.534 83.5 132.374C82.342 131.811 81 131.874 78.6652 131.873C76.5 131.874 73.9207 132.171 70.6487 133.934C68.0232 125.305 59.4571 127.6 55.5022 129.826C51.3518 136.874 47.2501 142.612 43.3154 147.257L41.8154 180.373Z" fill="white"/>
<path d="M135.081 181.873L41.8154 180.373L43.3154 147.257M135.081 181.873C135.081 180.673 135.081 174.115 135.081 170.986M135.081 181.873V170.986M70.6487 133.934C68.0232 125.305 59.4571 127.6 55.5022 129.826C51.3518 136.874 47.2501 142.612 43.3154 147.257M70.6487 133.934C73.9207 132.171 76.5 131.874 78.6652 131.873M70.6487 133.934C66.9233 137.337 64.9206 143.864 69.5764 148.593C72.2391 150.155 75.0245 148.315 76.5399 143.991C77.4923 142.385 79.6404 139.896 81.6329 140.702C82.0126 140.856 82.3867 141.129 82.7457 141.551C81.4473 143.627 78.5 146.374 81.6329 148.913C82.8909 149.933 84.7807 149.256 85.5 148.913M73.9248 118.482C72.6317 117.897 69.4532 117.318 67.084 119.681C66.6082 120.156 65.9703 120.552 65.2311 120.883M55.4301 122.4C57.7456 122.463 62.2899 122.198 65.2311 120.883M65.2311 120.883C67.3612 123.743 72.1367 127.944 76.8507 126.263M81.6994 114.008C83.1957 119.264 81.2664 122.876 80.1147 124.024C79.6382 124.531 79.154 124.955 78.6652 125.304M78.6652 125.304C79.7614 126.316 82.2424 127.62 84.668 126.253M78.6652 125.304C78.0653 125.731 77.4585 126.046 76.8507 126.263M87.7825 114.971C88.4353 116.975 89.0323 121.785 86.1979 124.987C85.6997 125.549 85.1851 125.962 84.668 126.253M84.668 126.253C85.5564 126.692 86.7685 126.993 87.961 126.774M87.961 126.774C90.0802 126.385 92.1379 124.352 92.2088 118.523M87.961 126.774C86.3568 127.349 83.1606 128.214 83.5 132.374M83.5 132.374C83.8394 136.534 88.3458 137.685 90.5202 137.078C91.992 136.417 94.1179 134.987 95.8879 132.793M83.5 132.374C82.342 131.811 81 131.874 78.6652 131.873M76.8507 126.263C77.6746 127.186 79.1582 128.758 78.6652 131.873M87.4361 143.434C85.4796 146.166 83.2522 152.012 89.9949 153.535M92.1799 147.607C89.6889 151.966 87.8488 160.268 100.416 158.606C101.27 158.27 102.777 157.261 103.111 155.61M98.634 151.48C100.015 151.508 102.852 152.147 103.148 154.475C103.2 154.882 103.182 155.261 103.111 155.61M103.111 155.61C104.423 157.529 109.197 160.908 117.801 159.075C120.011 159.995 126.184 163.367 133.196 169.496C133.78 170.006 134.411 170.504 135.081 170.986M95.8879 132.793C97.8846 130.318 99.4283 126.871 99.0684 122.46C98.2198 112.059 94.1457 106.281 81.8914 104.913C69.6371 103.544 64.9117 104.508 52.6416 111.122C43.6452 114.145 27.8393 120.946 16.2085 129.826M95.8879 132.793C100.551 132.961 113.583 138.445 116.792 141.805C119.36 144.492 141.591 143.803 152.282 144.543C157.753 144.923 161.867 146.529 164.742 148.913M16.2085 129.826C10.4331 134.236 5.68716 139.158 3.31546 144.384C-3.83254 160.136 7.26351 164.972 13.705 165.421C18.6088 166.197 30.0064 162.971 43.3154 147.257M16.2085 129.826L34.0823 104.913C38.6472 99.4207 52.9061 87.6573 73.4227 84.5407M164.742 148.913C170.5 155.61 171.641 162.213 167.282 170.543C162.924 178.874 144.476 177.731 135.081 170.986M164.742 148.913L153.161 118.477C149.79 109.617 143.988 101.865 136.07 96.6525L113.898 83.4089M113.898 83.4089C113.394 87.7474 108.753 96.0848 94.2276 94.7267C79.7019 93.3685 74.3053 87.3701 73.4227 84.5407M113.898 83.4089C113.898 82.9562 113.394 74.9206 113.141 70.9594M73.4227 84.5407L74.5574 70.9594M113.141 70.9594C114.402 69.2618 116.924 63.9424 116.924 56.2464M113.141 70.9594C99.8262 89.0681 81.8707 78.5047 74.5574 70.9594M116.924 56.2464C120.455 56.6236 127.97 54.096 129.785 40.9675C131.601 27.8389 129.785 12.874 118.5 11.874C114.465 6.59235 106.938 -3.28487 94.2276 3.05306C90.4449 1.73254 81.7446 -0.00307989 77.2053 3.61859C73.8009 3.61859 66.765 4.97672 65.8571 10.4092C63.7136 10.9751 59.5022 13.2387 59.8048 17.7658C56.9047 20.7838 52.2393 29.5362 56.7786 40.4012C56.7786 43.042 55.4284 50.6592 61.3188 51.8732M116.924 56.2464C118.311 46.2886 117.378 26.4732 102.55 26.8732C84.0142 27.3732 70.8188 25.6882 69.3188 44.3624C69.3705 47.366 69.8188 47.8732 69.8188 51.8732C69.8188 53.0922 66.3188 41.1682 61.8188 48.3732C61.3937 49.0538 61.2805 50.7258 61.3188 51.8732M61.3188 51.8732C61.4449 55.6457 64.9493 61.5654 70.3964 60.2072C70.7747 62.6596 72.1365 68.2435 74.5574 70.9594M84.0142 64.1684C87.1665 67.7524 95.892 72.7699 105.576 64.1684M79.475 49.4554C80.862 47.7577 84.3925 45.381 87.4187 49.4554M104.063 49.4554C104.819 47.9464 107.165 45.8337 110.493 49.4554M77.2053 44.3624C79.3489 42.6648 84.6195 40.288 88.5535 44.3624M102.55 43.2306C104.315 41.7216 108.905 39.609 113.141 43.2306M95.8879 49.4554C96.3861 52.7366 100.538 57.9844 95.8879 58.9844" stroke="black" stroke-width="2" stroke-linecap="round"/>
<path d="M41.1523 83.9014L41.0459 87.8184C62.4337 90.292 72.4421 101.805 74.8848 108.669L74.9434 108.865C75.1685 109.784 74.7137 110.74 73.8594 111.146L73.6699 111.224C72.629 111.594 71.4853 111.049 71.1152 110.009C69.2682 104.82 60.7874 94.2392 40.9375 91.833L40.8408 95.4434L40.7939 97.1758L39.3174 96.2695L29.4766 90.2285L28.001 89.3223L29.5234 88.4971L39.6758 82.9951L41.1992 82.1699L41.1523 83.9014Z" fill="#F50000" stroke="black" stroke-width="2"/>
</svg>
