<?xml version="1.0" standalone="no"?>
<!DOCTYPE svg PUBLIC "-//W3C//DTD SVG 20010904//EN"
 "http://www.w3.org/TR/2001/REC-SVG-20010904/DTD/svg10.dtd">
<svg version="1.0" xmlns="http://www.w3.org/2000/svg"
 width="500.000000pt" height="500.000000pt" viewBox="0 0 500.000000 500.000000"
 preserveAspectRatio="xMidYMid meet">

<g transform="translate(0.000000,500.000000) scale(0.100000,-0.100000)"
fill="#000000" stroke="none">
<path d="M1947 4634 c-3 -3 -97 -5 -210 -5 -165 1 -206 -1 -216 -13 -9 -10
-11 -407 -9 -1642 2 -896 2 -1830 0 -2075 -3 -390 -2 -448 12 -461 13 -14 120
-15 943 -11 675 4 931 8 939 17 13 12 37 4013 26 4121 l-7 60 -212 2 -213 2 0
-32 0 -32 -14 25 c-7 14 -9 30 -5 35 8 11 -373 12 -417 1 -13 -4 -33 -2 -44 4
-18 10 -20 7 -20 -30 0 -49 -18 -53 -22 -5 l-3 35 -200 2 c-110 0 -208 -3
-218 -7 -11 -4 -23 -3 -30 4 -21 21 -35 12 -31 -19 3 -16 1 -37 -4 -46 -7 -13
-11 -9 -16 20 -4 20 -4 41 -1 46 7 11 -18 14 -28 4z m673 -59 c53 -11 134 -14
173 -7 57 11 76 5 70 -18 -7 -26 -32 -33 -122 -29 -42 1 -88 2 -103 1 l-28 -2
0 -244 c0 -135 -3 -247 -8 -250 -4 -2 -9 113 -11 257 -2 197 -6 270 -17 296
-18 44 -18 48 4 22 9 -12 28 -24 42 -26z m301 8 c-12 -20 -14 -14 -5 12 4 9 9
14 11 11 3 -2 0 -13 -6 -23z m-691 -7 l131 -1 -3 -24 c-3 -24 -5 -24 -113 -26
-60 -1 -118 -5 -127 -10 -15 -6 -18 -22 -20 -104 l-1 -96 -7 125 c-4 69 -11
134 -15 145 -8 18 -7 18 8 6 12 -9 54 -14 147 -15z m975 -10 c50 -3 102 -5
118 -6 20 0 27 -5 27 -20 0 -18 -6 -20 -67 -18 -142 4 -162 1 -169 -27 -4 -15
-1 -32 7 -42 11 -13 11 -17 2 -20 -17 -6 -19 -273 -2 -273 8 0 8 -4 -1 -14 -6
-8 -11 -37 -10 -63 4 -104 0 -316 -6 -311 -3 4 -5 87 -5 185 1 132 -2 174 -10
163 -9 -12 -9 -11 -2 5 4 11 9 103 11 204 2 142 0 194 -12 227 l-15 44 22 -14
c12 -8 62 -17 112 -20z m-1472 10 c107 -1 112 -2 115 -23 3 -18 -4 -24 -34
-32 -20 -6 -41 -8 -46 -5 -9 6 -70 6 -110 1 -32 -5 -58 -24 -58 -43 0 -8 -4
-14 -10 -14 -5 0 -10 15 -10 34 0 18 -3 48 -6 65 -6 31 -6 32 20 25 15 -3 77
-7 139 -8z m1326 -62 c-16 -19 -24 -17 -26 5 -1 14 3 17 18 14 15 -4 17 -8 8
-19z m13 -26 c-7 -7 -12 -8 -12 -2 0 6 3 14 7 17 3 4 9 5 12 2 2 -3 -1 -11 -7
-17z m-1282 -25 c0 -8 -16 -10 -55 -6 -35 4 -60 2 -69 -6 -11 -9 -15 -8 -18 6
-4 16 3 18 69 18 49 0 73 -4 73 -12z m510 -6 c0 -16 -3 -18 -12 -9 -7 7 -39
12 -76 12 -35 0 -61 4 -58 8 2 4 36 8 75 9 66 1 71 0 71 -20z m196 -62 c0 -47
-4 -85 -8 -85 -4 0 -8 38 -8 85 0 47 3 85 8 85 4 0 7 -38 8 -85z m504 76 c0
-6 -4 -13 -10 -16 -5 -3 -10 1 -10 9 0 9 5 16 10 16 6 0 10 -4 10 -9z m338
-22 c-3 -8 -7 -3 -11 10 -4 17 -3 21 5 13 5 -5 8 -16 6 -23z m-1501 -11 c-3
-7 -5 -2 -5 12 0 14 2 19 5 13 2 -7 2 -19 0 -25z m908 23 l-70 -6 -6 -75 -5
-75 -2 83 -2 82 78 -2 77 -2 -70 -5z m533 2 c-21 -2 -57 -2 -80 0 -24 2 -7 4
37 4 44 0 63 -2 43 -4z m79 -55 c-2 -13 -4 -5 -4 17 -1 22 1 32 4 23 2 -10 2
-28 0 -40z m-1180 36 c-3 -3 -12 -4 -19 -1 -8 3 -5 6 6 6 11 1 17 -2 13 -5z
m993 -88 c0 -92 -10 -79 -13 17 -1 42 1 70 5 64 4 -7 8 -43 8 -81z m-1181 42
c-1 -39 -2 -41 -8 -13 -4 17 -5 36 -3 43 8 23 12 12 11 -30z m1348 -65 c-2
-21 -4 -6 -4 32 0 39 2 55 4 38 2 -18 2 -50 0 -70z m-1171 42 c-1 -24 -5 -47
-8 -51 -4 -3 -5 9 -4 28 2 18 4 41 5 51 0 9 3 17 6 17 2 0 3 -20 1 -45z m831
6 c0 -11 -5 -18 -9 -15 -4 3 -5 11 -1 19 7 21 12 19 10 -4z m360 -48 c-3 -10
-5 -4 -5 12 0 17 2 24 5 18 2 -7 2 -21 0 -30z m-356 -548 c-4 -28 -4 -29 -12
-6 -5 12 -7 27 -4 31 3 5 1 11 -5 15 -6 4 -8 11 -4 16 3 6 7 119 9 252 2 133
5 244 6 247 5 8 14 -522 10 -555z m-1010 455 c-9 -22 -10 -20 -10 21 -1 25 2
49 7 53 11 12 14 -47 3 -74z m106 48 c-3 -8 -6 -5 -6 6 -1 11 2 17 5 13 3 -3
4 -12 1 -19z m399 -4 c-3 -9 -6 -49 -6 -91 0 -71 -1 -74 -17 -57 -13 13 -14
19 -5 22 8 2 12 27 12 73 0 44 4 69 11 69 6 0 8 -7 5 -16z m171 -186 c-1 -40
-3 -10 -3 67 0 77 1 110 3 73 2 -37 2 -100 0 -140z m690 130 c-2 -13 -4 -3 -4
22 0 25 2 35 4 23 2 -13 2 -33 0 -45z m-1257 -213 c0 -137 -2 -251 -5 -253 -3
-3 -5 111 -5 253 0 142 2 256 5 253 3 -3 6 -117 5 -253z m-113 118 c-2 -16 -4
-5 -4 22 0 28 2 40 4 28 2 -13 2 -35 0 -50z m1183 27 c0 -5 -5 -10 -11 -10 -5
0 -7 5 -4 10 3 6 8 10 11 10 2 0 4 -4 4 -10z m187 -37 c-3 -10 -5 -2 -5 17 0
19 2 27 5 18 2 -10 2 -26 0 -35z m-1520 -115 c-2 -29 -3 -8 -3 47 0 55 1 79 3
53 2 -26 2 -71 0 -100z m-240 -20 c-2 -29 -3 -6 -3 52 0 58 1 81 3 53 2 -29 2
-77 0 -105z m903 75 c0 -14 -3 -23 -7 -19 -10 10 -11 46 -1 46 4 0 8 -12 8
-27z m574 0 c-4 -16 -10 -32 -15 -37 -7 -8 -4 17 7 52 7 24 14 11 8 -15z
m-544 7 c0 -5 -4 -10 -10 -10 -5 0 -10 5 -10 10 0 6 5 10 10 10 6 0 10 -4 10
-10z m807 -102 c-2 -24 -4 -7 -4 37 0 44 2 63 4 43 2 -21 2 -57 0 -80z m-1345
68 c3 -14 1 -31 -3 -38 -6 -8 -9 1 -9 25 0 42 6 48 12 13z m1177 -109 c-1 -42
-5 -80 -10 -83 -5 -3 -8 46 -7 108 1 80 4 104 10 83 4 -16 8 -65 7 -108z m188
86 c-3 -10 -5 -2 -5 17 0 19 2 27 5 18 2 -10 2 -26 0 -35z m-857 -35 c0 -5 -4
-8 -10 -8 -5 0 -10 10 -10 23 0 18 2 19 10 7 5 -8 10 -18 10 -22z m109 -50
l-1 -73 -10 48 c-9 42 -5 97 7 97 3 0 4 -33 4 -72z m48 -71 c-2 -23 -3 -1 -3
48 0 50 1 68 3 42 2 -26 2 -67 0 -90z m-667 78 c0 -14 -2 -25 -4 -25 -2 0 -6
11 -8 25 -3 14 -1 25 3 25 5 0 9 -11 9 -25z m-10 -51 c0 -8 -4 -14 -9 -14 -11
0 -22 26 -14 34 9 9 23 -3 23 -20z m515 -22 c1 -4 6 -17 13 -29 10 -18 9 -21
-6 -19 -11 2 -18 14 -20 37 -2 19 0 30 5 26 4 -5 8 -12 8 -15z m-898 -64 c-2
-13 -4 -3 -4 22 0 25 2 35 4 23 2 -13 2 -33 0 -45z m392 -71 c1 -56 4 -103 6
-106 3 -2 -1 -11 -8 -19 -10 -13 -8 -14 17 -10 18 4 35 1 43 -8 7 -7 21 -10
30 -7 11 4 14 3 9 -5 -4 -7 -3 -12 2 -12 6 0 13 7 16 16 6 16 26 11 26 -7 0
-6 -4 -8 -9 -5 -5 4 -11 1 -13 -5 -2 -7 -23 -12 -46 -12 -23 0 -40 -2 -38 -6
1 -3 -5 -14 -16 -23 -10 -10 -18 -17 -19 -15 0 1 -2 10 -4 20 -7 35 -15 48
-26 42 -16 -10 -139 -10 -141 0 -3 9 42 21 107 28 51 6 61 19 45 58 -7 17 -14
44 -15 60 -2 24 0 27 13 16 13 -10 14 -3 9 58 -4 40 -3 64 2 56 5 -7 9 -59 10
-114z m617 72 c-6 -59 -15 -59 -14 0 0 28 4 49 9 46 5 -3 7 -24 5 -46z m-769
19 c-3 -8 -6 -5 -6 6 -1 11 2 17 5 13 3 -3 4 -12 1 -19z m1333 8 c0 -3 -4 -8
-10 -11 -5 -3 -10 -1 -10 4 0 6 5 11 10 11 6 0 10 -2 10 -4z m-1015 -16 c3 -5
1 -10 -4 -10 -6 0 -11 5 -11 10 0 6 2 10 4 10 3 0 8 -4 11 -10z m692 -15 c-5
-12 -24 -15 -109 -13 l-103 2 89 3 c62 3 93 8 103 19 18 17 28 12 20 -11z
m-517 5 c0 -5 -7 -7 -15 -4 -8 4 -15 8 -15 10 0 2 7 4 15 4 8 0 15 -4 15 -10z
m1010 -5 c0 -12 -17 -15 -97 -13 l-98 2 93 3 c56 2 90 8 87 13 -4 6 -1 10 4
10 6 0 11 -7 11 -15z m-1527 -16 c-12 -4 -29 -6 -39 -4 -11 2 -32 5 -49 6 -16
1 -3 5 30 8 65 7 91 2 58 -10z m693 0 c3 -22 5 -23 15 -9 9 13 10 13 6 0 -2
-8 -10 -14 -16 -12 -6 1 -11 -9 -11 -23 0 -14 -4 -25 -10 -25 -11 0 -13 33 -4
68 6 21 17 22 20 1z m-826 1 c-20 -13 -40 -13 -40 0 0 6 12 10 28 10 21 0 24
-2 12 -10z m538 3 c-16 -2 -40 -2 -55 0 -16 2 -3 4 27 4 30 0 43 -2 28 -4z
m786 -75 c4 -17 2 -28 -4 -28 -5 0 -10 14 -10 32 0 36 4 35 14 -4z m-507 -65
c-1 -55 -1 -56 26 -57 15 -1 27 2 27 6 0 11 133 3 137 -8 2 -5 41 -9 88 -8 47
0 85 -3 85 -7 0 -6 23 -5 40 1 3 1 8 2 13 1 13 -2 7 11 -10 25 -16 12 -15 13
13 10 17 -2 37 -7 45 -11 7 -5 47 -10 88 -12 41 -2 81 -9 88 -15 10 -8 13 -6
13 8 1 18 1 18 15 0 8 -11 15 -14 15 -7 0 7 4 10 8 7 5 -3 30 -7 57 -11 27 -3
51 -8 54 -10 5 -5 -36 -9 -54 -5 -24 5 -215 1 -224 -5 -6 -3 -15 -20 -20 -38
l-9 -32 -1 33 c-1 18 -6 42 -12 53 -9 19 -12 19 -27 6 -20 -18 -192 -28 -192
-12 0 6 -3 5 -8 -1 -9 -14 -45 -14 -54 0 -4 6 -9 4 -14 -7 -7 -20 -34 -23 -34
-4 0 9 -2 9 -9 -1 -7 -11 -30 -12 -66 -1 -5 2 -21 -1 -34 -5 -18 -6 -28 -4
-37 9 -25 34 -100 -11 -89 -55 l6 -25 -17 24 c-12 17 -14 28 -7 40 9 14 1 16
-71 14 -45 -1 -74 1 -66 4 8 3 18 11 22 18 10 17 61 16 111 -1 l42 -14 -25 20
-25 20 25 0 c61 1 70 9 70 61 0 27 4 49 9 49 5 0 9 -25 8 -57z m499 -30 c-10
-10 -19 5 -10 18 6 11 8 11 12 0 2 -7 1 -15 -2 -18z m-911 -13 c-3 -5 -11 -10
-16 -10 -6 0 -7 5 -4 10 3 6 11 10 16 10 6 0 7 -4 4 -10z m-304 -24 l-22 -10
21 -11 c18 -10 -3 -12 -107 -13 -126 -2 -162 5 -149 27 10 16 66 14 66 -2 0
-9 13 -13 43 -11 23 2 44 4 47 5 3 1 10 3 15 4 61 11 85 19 85 27 0 5 5 6 12
2 8 -5 5 -11 -11 -18z m464 -6 c4 -6 -9 -10 -32 -9 -34 1 -35 2 -13 9 35 11
38 11 45 0z m-80 -10 c-3 -5 -12 -10 -18 -10 -7 0 -6 4 3 10 19 12 23 12 15 0z
m1181 -5 c14 -13 13 -15 -10 -15 -25 0 -33 10 -19 23 9 10 13 9 29 -8z m-1262
-51 c14 -13 39 -15 154 -13 114 3 137 1 140 -12 1 -8 -4 -23 -12 -34 -13 -18
-27 -20 -135 -20 -100 0 -121 -3 -122 -15 -1 -8 -2 -34 -3 -57 -3 -74 -13 -56
-18 31 -3 56 -10 92 -21 110 -19 29 -8 35 17 10z m366 -5 c0 -4 -7 -6 -15 -3
-8 4 -15 10 -15 15 0 4 7 6 15 3 8 -4 15 -10 15 -15z m-575 -17 c-3 -8 -5 -23
-5 -33 0 -11 -4 -17 -10 -14 -5 3 -10 3 -10 -2 0 -4 -47 -9 -105 -10 -136 -2
-145 -5 -145 -50 0 -58 -7 -34 -13 47 l-6 75 149 0 c121 0 149 -3 145 -13z
m830 8 c39 -1 94 2 123 5 46 5 52 3 52 -13 0 -44 -22 -54 -116 -56 -49 -1
-104 -3 -121 -4 l-33 -2 -2 -172 -2 -173 -6 180 c-4 99 -12 195 -18 214 l-11
33 32 -6 c18 -3 64 -6 102 -6z m577 -4 c31 -1 54 -4 51 -8 -2 -5 1 -8 7 -8 6
0 10 -8 8 -17 -3 -16 -19 -19 -118 -23 l-115 -5 -5 -245 -5 -245 -6 260 c-3
143 -9 271 -14 284 l-8 24 74 -8 c41 -5 99 -9 131 -9z m-1266 -131 c-1 -73 -5
-118 -13 -126 -9 -9 -13 -4 -18 22 -12 66 -12 74 -2 94 6 11 12 38 13 60 3 61
3 65 12 65 5 0 8 -52 8 -115z m-179 3 c-3 -8 -6 -5 -6 6 -1 11 2 17 5 13 3 -3
4 -12 1 -19z m457 10 c13 1 16 -2 9 -9 -7 -7 -17 -8 -29 -1 -11 5 -25 7 -33 4
-9 -3 -11 0 -6 7 4 7 14 9 24 5 9 -4 25 -6 35 -6z m216 2 c0 -5 -4 -10 -10
-10 -5 0 -10 5 -10 10 0 6 5 10 10 10 6 0 10 -4 10 -10z m-850 -10 c0 -5 -7
-10 -15 -10 -8 0 -15 5 -15 10 0 6 7 10 15 10 8 0 15 -4 15 -10z m137 -2 c-15
-10 -118 -7 -111 3 2 5 31 7 64 6 33 -1 54 -5 47 -9z m373 2 c0 -5 -2 -10 -4
-10 -3 0 -8 5 -11 10 -3 6 -1 10 4 10 6 0 11 -4 11 -10z m40 0 c12 -8 11 -10
-7 -10 -13 0 -23 5 -23 10 0 13 11 13 30 0z m478 3 c-20 -5 -29 -33 -25 -79 2
-18 0 -40 -4 -50 -4 -11 -8 15 -8 59 l-1 77 28 -1 c16 -1 20 -3 10 -6z m475
-13 c-3 -11 -7 -20 -9 -20 -2 0 -4 9 -4 20 0 11 4 20 9 20 5 0 7 -9 4 -20z
m-1176 -247 c-2 -16 -4 -5 -4 22 0 28 2 40 4 28 2 -13 2 -35 0 -50z m-394 -14
c-6 -6 -7 3 -4 23 4 28 6 29 9 9 2 -13 0 -27 -5 -32z m1064 14 c-3 -10 -5 -4
-5 12 0 17 2 24 5 18 2 -7 2 -21 0 -30z m500 -25 c-3 -8 -6 -5 -6 6 -1 11 2
17 5 13 3 -3 4 -12 1 -19z m-1340 -30 c-3 -7 -5 -2 -5 12 0 14 2 19 5 13 2 -7
2 -19 0 -25z m790 0 c-3 -8 -6 -5 -6 6 -1 11 2 17 5 13 3 -3 4 -12 1 -19z
m-1020 -70 c-3 -7 -5 -2 -5 12 0 14 2 19 5 13 2 -7 2 -19 0 -25z m1070 -20
c-2 -13 -4 -5 -4 17 -1 22 1 32 4 23 2 -10 2 -28 0 -40z m-127 -42 c0 -3 -4
-8 -10 -11 -5 -3 -10 -1 -10 4 0 6 5 11 10 11 6 0 10 -2 10 -4z m-930 -22 c0
-8 -4 -12 -10 -9 -5 3 -10 10 -10 16 0 5 5 9 10 9 6 0 10 -7 10 -16z m927 -66
c-2 -13 -4 -3 -4 22 0 25 2 35 4 23 2 -13 2 -33 0 -45z m80 40 c-3 -8 -6 -5
-6 6 -1 11 2 17 5 13 3 -3 4 -12 1 -19z m-442 -8 c3 -5 1 -10 -4 -10 -6 0 -11
5 -11 10 0 6 2 10 4 10 3 0 8 -4 11 -10z m998 -55 c-7 -21 -13 -19 -13 6 0 11
4 18 10 14 5 -3 7 -12 3 -20z m-636 -62 c-3 -10 -5 -4 -5 12 0 17 2 24 5 18 2
-7 2 -21 0 -30z m136 7 c3 -11 1 -20 -4 -20 -5 0 -9 9 -9 20 0 11 2 20 4 20 2
0 6 -9 9 -20z m-113 -39 c0 -6 -4 -13 -10 -16 -5 -3 -10 1 -10 9 0 9 5 16 10
16 6 0 10 -4 10 -9z m47 -43 c-2 -13 -4 -5 -4 17 -1 22 1 32 4 23 2 -10 2 -28
0 -40z m-777 22 c0 -9 -86 -17 -142 -12 -29 2 -35 6 -27 15 13 14 169 11 169
-3z m514 -1 c-3 -5 -48 -9 -100 -9 -113 0 -119 16 -7 19 42 1 79 4 81 6 8 7
32 -7 26 -16z m401 10 c-5 -7 12 -9 55 -5 40 4 59 3 55 -4 -4 -6 -47 -9 -103
-8 -53 0 -82 3 -64 5 17 2 32 8 32 14 0 5 7 9 16 9 8 0 12 -5 9 -11z m442 5
c-3 -3 -12 -4 -19 -1 -8 3 -5 6 6 6 11 1 17 -2 13 -5z m128 -4 c-3 -5 -1 -10
4 -10 6 0 11 4 11 8 0 5 7 9 15 9 8 0 15 -4 15 -8 0 -14 -33 -19 -118 -17
l-87 2 75 6 c64 5 69 6 35 11 l-40 6 48 1 c30 1 46 -2 42 -8z m-1285 -80 c0
-19 -5 -30 -14 -30 -12 0 -12 5 -3 30 6 17 13 30 14 30 2 0 3 -13 3 -30z m110
-110 c0 -5 -8 -10 -17 -10 -15 0 -16 2 -3 10 19 12 20 12 20 0z m-566 -16 c25
-9 19 -24 -9 -24 -24 0 -32 10 -18 23 8 8 8 8 27 1z m379 -3 c10 -1 16 -5 13
-10 -6 -9 -107 -2 -119 8 -4 4 14 6 40 5 27 -1 56 -3 66 -3z m121 -13 c-3 -5
-12 -7 -19 -4 -8 3 -16 0 -18 -7 -3 -9 -9 -8 -22 3 -17 14 -16 15 11 21 34 6
56 1 48 -13z m486 12 c13 -9 13 -12 -2 -21 -10 -5 -18 -18 -18 -27 0 -11 -6
-7 -15 12 -19 36 -19 35 8 29 18 -4 19 -3 7 6 -19 14 0 14 20 1z m410 6 c0 -2
-7 -9 -15 -16 -13 -11 -14 -10 -9 4 5 14 24 23 24 12z m124 -2 c23 -9 20 -23
-4 -17 -11 3 -27 -2 -36 -11 -15 -16 -18 -16 -35 0 -15 14 -17 19 -7 26 15 9
60 10 82 2z m66 -14 c8 -16 8 -18 -4 -14 -17 6 -30 34 -16 34 5 0 14 -9 20
-20z m-696 0 c-7 -7 -19 -7 -35 -1 -23 9 -22 10 11 10 23 1 31 -2 24 -9z m156
2 c0 -5 -7 -9 -15 -9 -8 0 -12 4 -9 9 3 4 9 8 15 8 5 0 9 -4 9 -8z m668 -7 c3
-3 -4 -5 -16 -5 -11 0 -23 4 -27 9 -6 10 33 6 43 -4z m-468 -11 c0 -2 -14 -4
-31 -4 -16 0 -28 4 -25 9 5 8 56 3 56 -5z m-627 -6 c-6 -11 -61 -10 -67 1 -3
4 12 8 33 7 22 -1 37 -4 34 -8z m544 6 c-3 -3 -12 -4 -19 -1 -8 3 -5 6 6 6 11
1 17 -2 13 -5z m260 -31 c-3 -10 -5 -4 -5 12 0 17 2 24 5 18 2 -7 2 -21 0 -30z
m-1412 -9 c28 -24 33 -25 160 -23 71 1 131 -1 133 -4 1 -4 0 -18 -4 -32 -7
-30 -33 -35 -154 -33 -47 1 -92 -2 -100 -5 -12 -6 -19 3 -29 39 -8 25 -19 48
-27 51 -14 5 -28 33 -16 33 4 0 20 -11 37 -26z m891 -21 c-8 -15 -15 -25 -16
-21 0 12 23 58 27 54 3 -2 -2 -17 -11 -33z m292 0 c67 2 122 3 122 2 0 -15
-29 -61 -39 -63 -8 -2 -59 -4 -115 -6 -56 -2 -108 -6 -117 -10 -12 -5 -18 3
-26 36 -6 24 -14 51 -17 60 -7 15 -3 14 31 -3 34 -18 52 -20 161 -16z m-646 2
c10 -4 74 -5 142 -4 l125 4 -6 -25 c-3 -14 -9 -28 -12 -33 -4 -4 -58 -9 -120
-12 -62 -3 -117 -8 -122 -11 -5 -3 -9 1 -9 8 0 10 -2 10 -9 0 -6 -10 -10 -3
-15 23 -4 20 -10 43 -12 50 -6 14 7 14 38 0z m1083 0 c161 -4 155 -2 155 -35
l0 -30 -107 0 c-60 0 -117 -3 -129 -6 -17 -4 -22 1 -32 34 -17 55 -16 55 26
46 20 -4 60 -8 87 -9z m-692 -21 c-4 -10 -9 -12 -15 -6 -12 12 -1 35 12 27 5
-3 6 -13 3 -21z m504 -21 c-3 -10 -5 -4 -5 12 0 17 2 24 5 18 2 -7 2 -21 0
-30z m-988 -10 c0 -31 -2 -34 -9 -18 -12 28 -12 55 0 55 6 0 10 -17 9 -37z
m529 -33 c-1 -16 -5 -27 -10 -24 -11 7 -10 54 1 54 5 0 9 -13 9 -30z m-537
-47 c-8 -15 -10 -15 -11 -2 0 17 10 32 18 25 2 -3 -1 -13 -7 -23z m-331 -3 c0
-5 -4 -10 -10 -10 -5 0 -10 5 -10 10 0 6 5 10 10 10 6 0 10 -4 10 -10z m90 -3
c0 -4 -18 -7 -40 -5 -52 3 -52 14 0 13 22 0 40 -4 40 -8z m537 6 c-12 -12
-145 -15 -152 -4 -4 8 21 11 76 11 45 0 79 -3 76 -7z m481 -4 c-10 -5 -42 -9
-70 -7 l-53 3 -5 -175 -6 -175 -2 181 -2 181 78 1 c55 1 72 -2 60 -9z m42 1
c0 -5 -2 -10 -4 -10 -3 0 -8 5 -11 10 -3 6 -1 10 4 10 6 0 11 -4 11 -10z m370
3 c0 -5 -11 -8 -25 -8 -14 0 -25 3 -25 8 0 4 11 7 25 7 14 0 25 -3 25 -7z m83
0 c-13 -2 -33 -2 -45 0 -13 2 -3 4 22 4 25 0 35 -2 23 -4z m-826 -55 c-3 -7
-5 -2 -5 12 0 14 2 19 5 13 2 -7 2 -19 0 -25z m700 -105 c-3 -10 -5 -4 -5 12
0 17 2 24 5 18 2 -7 2 -21 0 -30z m-700 -45 c-3 -8 -6 -5 -6 6 -1 11 2 17 5
13 3 -3 4 -12 1 -19z m47 10 c10 -10 11 -19 3 -35 -15 -33 -24 -28 -24 12 0
39 2 41 21 23z m-11 -87 c3 -11 -1 -22 -8 -24 -8 -4 -10 3 -7 19 5 29 8 30 15
5z m17 -121 c0 -52 -4 -80 -11 -80 -7 0 -9 11 -6 27 3 15 1 36 -5 47 -7 13 -7
16 1 12 14 -9 14 7 0 21 -8 8 -7 17 3 32 7 11 14 21 15 21 2 0 3 -36 3 -80z
m-503 18 c-3 -8 -6 -5 -6 6 -1 11 2 17 5 13 3 -3 4 -12 1 -19z m3 -56 c0 -15
-2 -15 -10 -2 -13 20 -13 33 0 25 6 -3 10 -14 10 -23z m647 -54 c-2 -18 -4 -6
-4 27 0 33 2 48 4 33 2 -15 2 -42 0 -60z m-840 50 c-3 -8 -6 -5 -6 6 -1 11 2
17 5 13 3 -3 4 -12 1 -19z m697 -106 c2 -23 -1 -32 -11 -32 -8 0 -11 5 -8 10
3 6 0 10 -7 10 -9 0 -9 3 -2 8 6 4 10 17 9 30 -3 35 14 11 19 -26z m143 -39
c-3 -10 -5 -4 -5 12 0 17 2 24 5 18 2 -7 2 -21 0 -30z m-833 -84 c-6 -11 -174
-8 -174 3 0 7 158 16 173 10 4 -2 5 -8 1 -13z m196 5 c0 -8 -5 -12 -10 -9 -6
4 -8 11 -5 16 9 14 15 11 15 -7z m307 1 c-2 -5 -45 -12 -95 -13 -78 -3 -92 -1
-92 12 0 13 15 15 95 13 58 -1 94 -6 92 -12z m378 5 c3 5 11 10 16 10 6 0 8
-3 6 -7 -7 -11 77 -10 84 1 4 5 12 5 19 1 9 -6 9 -10 -1 -16 -16 -11 -179 -8
-179 2 0 12 24 17 37 7 7 -5 14 -5 18 2z m560 0 c-3 -5 -2 -10 4 -10 5 0 13 5
16 10 8 13 45 13 45 0 0 -5 -7 -6 -17 -3 -10 4 -14 2 -10 -4 4 -7 -22 -11 -73
-12 -73 -2 -92 4 -73 22 11 11 115 8 108 -3z m-1118 -186 c-3 -3 -12 -4 -19
-1 -8 3 -5 6 6 6 11 1 17 -2 13 -5z m300 -9 c0 -8 -7 -15 -15 -15 -12 0 -12 3
-2 15 7 8 13 15 15 15 1 0 2 -7 2 -15z m-869 -6 c-2 -6 -7 -10 -11 -10 -4 1
-14 1 -22 1 -8 0 -15 5 -15 10 0 6 12 10 26 10 14 0 24 -5 22 -11z m265 4 c-7
-2 -19 -2 -25 0 -7 3 -2 5 12 5 14 0 19 -2 13 -5z m107 -5 c0 -11 -47 -11 -54
0 -3 5 8 9 24 9 17 0 30 -4 30 -9z m115 2 c3 -5 -3 -10 -14 -10 -12 0 -21 -5
-21 -11 0 -8 -5 -8 -15 1 -8 7 -15 16 -15 21 0 12 57 11 65 -1z m495 3 c0 -5
-11 -13 -25 -20 -14 -6 -25 -10 -25 -8 0 2 -3 10 -6 19 -5 13 1 16 25 16 17 0
31 -3 31 -7z m567 -10 c3 -9 -11 -12 -51 -10 -31 1 -56 -2 -56 -7 0 -5 -7 -3
-15 4 -8 7 -15 16 -15 21 0 13 133 5 137 -8z m70 11 c-3 -3 -12 -4 -19 -1 -8
3 -5 6 6 6 11 1 17 -2 13 -5z m-1210 -96 c-3 -8 -6 -5 -6 6 -1 11 2 17 5 13 3
-3 4 -12 1 -19z m752 5 c125 2 134 -1 107 -38 -12 -17 -26 -19 -116 -17 -57 0
-111 -3 -120 -8 -14 -8 -19 -2 -29 29 -15 51 -15 52 13 41 13 -5 79 -8 145 -7z
m576 3 c11 -2 23 -5 28 -5 12 -2 8 -19 -9 -35 -12 -12 -37 -16 -110 -16 -53 0
-104 -5 -114 -10 -17 -9 -20 -5 -29 27 -6 21 -11 40 -11 43 0 6 217 3 245 -4z
m-1448 -18 c2 -7 -3 -21 -10 -30 -11 -14 -34 -17 -137 -19 -113 -1 -125 0
-131 17 -19 49 -18 49 133 47 111 -1 144 -4 145 -15z m503 6 c0 -7 -8 -21 -17
-33 -16 -18 -30 -21 -137 -22 -125 -1 -136 2 -136 46 0 19 7 20 145 20 104 0
145 -3 145 -11z m630 -4 c0 -24 -15 -27 -24 -4 -3 8 -2 12 4 9 6 -3 10 -1 10
4 0 6 2 11 5 11 3 0 5 -9 5 -20z m-1014 -78 c-12 -11 -16 6 -9 39 l8 34 3 -33
c2 -19 1 -36 -2 -40z m994 39 c0 -5 -7 -14 -15 -21 -16 -14 -18 -10 -9 14 6
17 24 22 24 7z m-1181 -80 c9 -6 -2 -9 -30 -9 -36 1 -39 2 -19 8 34 11 33 11
49 1z m471 -7 c0 -2 -14 -4 -31 -4 -16 0 -28 4 -25 9 5 8 56 3 56 -5z m50 6
c0 -5 -2 -10 -4 -10 -3 0 -8 5 -11 10 -3 6 -1 10 4 10 6 0 11 -4 11 -10z m449
6 c-10 -10 -79 -15 -84 -6 -4 6 13 10 41 10 26 0 45 -2 43 -4z m408 -2 c-3 -3
-12 -4 -19 -1 -8 3 -5 6 6 6 11 1 17 -2 13 -5z m-1474 -11 c-7 -2 -19 -2 -25
0 -7 3 -2 5 12 5 14 0 19 -2 13 -5z m793 -45 c5 -7 2 -9 -9 -5 -9 3 -18 1 -21
-6 -2 -7 -5 -4 -5 6 -1 19 24 23 35 5z m151 -30 c-3 -7 -5 -2 -5 12 0 14 2 19
5 13 2 -7 2 -19 0 -25z m-160 -90 c-9 -6 -9 -8 1 -8 6 0 12 -8 12 -17 0 -15
-2 -15 -14 2 -7 10 -11 27 -8 38 4 14 7 15 13 6 5 -8 3 -17 -4 -21z m660 -70
c-3 -7 -5 -2 -5 12 0 14 2 19 5 13 2 -7 2 -19 0 -25z m-47 -148 c0 -5 -4 -10
-10 -10 -5 0 -10 5 -10 10 0 6 5 10 10 10 6 0 10 -4 10 -10z m-920 -260 c0 -5
-8 -10 -17 -10 -15 0 -16 2 -3 10 19 12 20 12 20 0z m30 0 c0 -5 -4 -10 -10
-10 -5 0 -10 5 -10 10 0 6 5 10 10 10 6 0 10 -4 10 -10z m115 0 c3 -5 -1 -10
-10 -10 -9 0 -13 5 -10 10 3 6 8 10 10 10 2 0 7 -4 10 -10z m361 3 c-3 -4 -17
-8 -29 -10 -17 -2 -19 -1 -7 7 17 11 47 14 36 3z m64 -8 c0 -1 -12 -2 -26 -2
-17 0 -22 2 -13 7 10 7 39 3 39 -5z m70 5 c0 -5 -8 -10 -17 -10 -15 0 -16 2
-3 10 19 12 20 12 20 0z m500 0 c0 -5 -4 -10 -10 -10 -5 0 -10 5 -10 10 0 6 5
10 10 10 6 0 10 -4 10 -10z m-1640 -10 c8 -5 11 -10 5 -10 -5 0 -17 5 -25 10
-8 5 -10 10 -5 10 6 0 17 -5 25 -10z m146 3 c-11 -11 -126 -12 -126 -2 0 5 30
9 67 9 36 0 63 -3 59 -7z m1171 -45 c-3 -7 -5 -2 -5 12 0 14 2 19 5 13 2 -7 2
-19 0 -25z"/>
<path d="M2710 4550 c0 -5 5 -10 11 -10 5 0 7 5 4 10 -3 6 -8 10 -11 10 -2 0
-4 -4 -4 -10z"/>
<path d="M1728 3553 c7 -3 16 -2 19 1 4 3 -2 6 -13 5 -11 0 -14 -3 -6 -6z"/>
</g>
</svg>
