<svg width="190" height="184" viewBox="0 0 190 184" fill="none" xmlns="http://www.w3.org/2000/svg">
<path d="M42.2635 105.127C50.1316 96.9784 71.7688 88.1506 81.6038 84.7553L82.7386 71.174C80.3176 68.458 78.9558 62.8742 78.5776 60.4218C73.1305 61.7799 69.6261 55.8603 69.5 52.0877C63.6096 50.8737 64.9598 43.2566 64.9598 40.6158C60.4205 29.7508 65.0859 20.9984 67.986 17.9803C67.6833 13.4532 71.8948 11.1897 74.0383 10.6238C74.9462 5.1913 81.982 3.83318 85.3865 3.83318C89.9257 0.211504 98.626 1.94712 102.409 3.26764C115.119 -3.07029 121.07 5.34235 125.105 10.624C137.966 13.5879 139.782 28.0535 137.966 41.182C136.151 54.3106 128.636 56.8382 125.105 56.461C125.105 64.157 122.583 69.4763 121.322 71.174C121.575 75.1352 122.079 83.1708 122.079 83.6235C127.501 85.8871 140.614 92.1118 149.693 98.9024C158.771 105.693 173.136 131.341 179.184 143.316C179.603 143.407 179.987 143.504 180.333 143.607C186.007 145.305 194.707 156.057 183.737 166.809C172.767 177.561 148.18 170.77 144.397 167.941C143.883 167.556 143.376 167.275 142.884 167.078L143.262 182.088L50.2072 180.956L50.8132 163.979C37.9228 172.264 20.3414 172.399 12.7583 171.336C8.59729 170.77 0.426615 167.601 1.03185 159.452C1.63709 151.304 7.08421 145.494 9.73211 143.607C17.2976 134.176 34.3955 113.276 42.2635 105.127Z" fill="white"/>
<path d="M81.6038 84.7553C71.7688 88.1506 50.1316 96.9784 42.2635 105.127C34.3955 113.276 17.2976 134.176 9.73211 143.607M81.6038 84.7553C82.4864 87.5847 87.8831 93.5831 102.409 94.9412C116.934 96.2994 121.575 87.962 122.079 83.6235M81.6038 84.7553L82.7386 71.174M9.73211 143.607C7.08421 145.494 1.63709 151.304 1.03185 159.452C0.426615 167.601 8.59729 170.77 12.7583 171.336C20.3414 172.399 37.9228 172.264 50.8132 163.979M9.73211 143.607C19.1571 138.032 40.246 140.401 50.2072 141.344C50.5722 141.11 51.0921 140.861 51.7202 140.606M71.7687 163.979C70.6184 164.171 69.4797 164.297 68.3642 164.369M68.3642 164.369C61.5563 164.811 55.6168 163.254 53.2333 162.282C52.4485 162.882 51.6405 163.448 50.8132 163.979M68.3642 164.369C69.8773 167.517 74.3409 171.924 80.0907 164.369C80.2615 163.924 80.4186 163.414 80.5385 162.87M74.7949 156.057C80.7073 155.672 81.2152 159.804 80.5385 162.87M80.5385 162.87C83.0292 163.042 87.3383 161.644 85.7033 154.925M78.1993 150.964C82.436 150.059 84.756 152.473 85.3865 153.793C85.5101 154.186 85.6153 154.564 85.7033 154.925M85.7033 154.925C87.2305 155.236 89.2447 155.597 91.4388 155.921M84.2517 145.305C94.8298 145.305 102.779 148.583 106.191 151.608M106.191 151.608C108.271 153.451 108.666 155.2 106.948 156.057C104.312 157.371 97.2455 156.778 91.4388 155.921M106.191 151.608C106.814 151.121 107.487 149.928 106.191 148.512M52.4768 128.329L51.7202 140.606M51.7202 140.606C54.7376 139.381 60.2506 138.007 63.0684 137.383C82.3603 135.119 101.652 145.305 105.057 147.569C105.54 147.89 105.912 148.206 106.191 148.512M50.8132 163.979L50.2072 180.956L143.262 182.088L142.884 167.078M91.4388 155.921C90.0518 156.721 85.9869 159.824 87.5 162.088C88.0344 162.588 89 163.588 92.1954 162.87M103.922 158.321C98.4999 159.83 86.8833 163.841 88.0344 166.809C89.5 170.588 98.5083 167.55 106.948 165.594M113.379 163.979C111.552 164.476 109.321 165.044 106.948 165.594M106.948 165.594C106.948 166.979 107.736 169.081 110.352 169.836M116.027 169.638C113.55 170.256 111.706 170.226 110.352 169.836M110.352 169.836C110.983 174.674 117.313 181.069 137.588 167.941C138.425 167.158 140.479 166.115 142.884 167.078M106.191 148.512C118 142.588 135.5 141.964 142.884 143.316M143.64 125.499L142.884 143.316M142.884 143.316C143.41 143.412 143.915 143.51 144.397 143.607C157.895 142.013 172.727 141.916 179.184 143.316M142.884 167.078C143.376 167.275 143.883 167.556 144.397 167.941C148.18 170.77 172.767 177.561 183.737 166.809C194.707 156.057 186.007 145.305 180.333 143.607C179.987 143.504 179.603 143.407 179.184 143.316M179.184 143.316C173.136 131.341 158.771 105.693 149.693 98.9024C140.614 92.1118 127.501 85.8871 122.079 83.6235M122.079 83.6235C122.079 83.1708 121.575 75.1352 121.322 71.174M121.322 71.174C122.583 69.4764 125.105 64.157 125.105 56.461M121.322 71.174C108.007 89.2827 90.0518 78.7193 82.7386 71.174M125.105 56.461C128.636 56.8382 136.151 54.3106 137.966 41.182C139.782 28.0535 137.966 13.5879 125.105 10.624C121.07 5.34235 115.119 -3.07029 102.409 3.26764C98.626 1.94712 89.9257 0.211504 85.3865 3.83318C81.982 3.83318 74.9462 5.1913 74.0383 10.6238C71.8948 11.1897 67.6833 13.4532 67.986 17.9803C65.0859 20.9984 60.4205 29.7508 64.9598 40.6158C64.9598 43.2566 63.6096 50.8737 69.5 52.0877M125.105 56.461C126.492 46.5032 125.559 26.6877 110.731 27.0877C92.1954 27.5877 79 25.9027 77.5 44.577C77.5517 47.5806 78 48.0877 78 52.0877C78 53.3068 74.5 41.3828 70 48.5877C69.5749 49.2683 69.4617 50.9404 69.5 52.0877M69.5 52.0877C69.6261 55.8603 73.1305 61.7799 78.5776 60.4218C78.9558 62.8742 80.3176 68.458 82.7386 71.174M92.1954 64.383C95.3476 67.967 104.073 72.9845 113.757 64.383M87.6561 49.67C89.0431 47.9723 92.5737 45.5956 95.5998 49.67M112.244 49.67C113 48.1609 115.346 46.0483 118.674 49.67M85.3865 44.577C87.53 42.8793 92.8006 40.5026 96.7346 44.577M110.731 43.4452C112.496 41.9362 117.086 39.8236 121.322 43.4452M103.922 49.67C104.42 52.9512 108.572 58.199 103.922 59.199" stroke="black" stroke-width="2" stroke-linecap="round"/>
<mask id="path-3-outside-1_2708_656" maskUnits="userSpaceOnUse" x="18.5" y="109.088" width="100" height="42" fill="black">
<rect fill="white" x="18.5" y="109.088" width="100" height="42"/>
<path d="M115.474 124.465L110.918 122.792C102.152 141.326 86.6566 147.846 71.0596 148.629C55.7398 149.398 40.2595 144.651 30.707 140.371L28.2764 144.586L22.5 134.588L34.0469 134.584L31.7129 138.629C41.1007 142.807 56.1558 147.374 70.959 146.631C85.9638 145.878 100.641 139.688 109.032 122.1L104.634 120.485L113.5 113.088L115.474 124.465Z"/>
</mask>
<path d="M115.474 124.465L110.918 122.792C102.152 141.326 86.6566 147.846 71.0596 148.629C55.7398 149.398 40.2595 144.651 30.707 140.371L28.2764 144.586L22.5 134.588L34.0469 134.584L31.7129 138.629C41.1007 142.807 56.1558 147.374 70.959 146.631C85.9638 145.878 100.641 139.688 109.032 122.1L104.634 120.485L113.5 113.088L115.474 124.465Z" fill="#F50000"/>
<path d="M115.474 124.465L114.784 126.342L118.036 127.536L117.444 124.123L115.474 124.465ZM110.918 122.792L111.607 120.915L109.891 120.284L109.11 121.937L110.918 122.792ZM71.0596 148.629L71.1599 150.626H71.1599L71.0596 148.629ZM30.707 140.371L31.5249 138.546L29.8767 137.807L28.9745 139.372L30.707 140.371ZM28.2764 144.586L26.5446 145.586L28.278 148.587L30.0089 145.585L28.2764 144.586ZM22.5 134.588L22.4993 132.588L19.0354 132.589L20.7682 135.588L22.5 134.588ZM34.0469 134.584L35.7792 135.584L37.5106 132.583L34.0462 132.584L34.0469 134.584ZM31.7129 138.629L29.9806 137.629L28.8706 139.553L30.8997 140.456L31.7129 138.629ZM70.959 146.631L71.0593 148.628L71.0593 148.628L70.959 146.631ZM109.032 122.1L110.837 122.961L111.783 120.979L109.721 120.222L109.032 122.1ZM104.634 120.485L103.353 118.95L100.692 121.169L103.945 122.363L104.634 120.485ZM113.5 113.088L115.471 112.746L114.878 109.333L112.219 111.552L113.5 113.088ZM115.474 124.465L116.163 122.587L111.607 120.915L110.918 122.792L110.229 124.669L114.784 126.342L115.474 124.465ZM110.918 122.792L109.11 121.937C100.736 139.643 86.0177 145.875 70.9593 146.631L71.0596 148.629L71.1599 150.626C87.2956 149.816 103.569 143.009 112.726 123.647L110.918 122.792ZM71.0596 148.629L70.9593 146.631C56.0627 147.379 40.9072 142.75 31.5249 138.546L30.707 140.371L29.8892 142.196C39.6117 146.553 55.4169 151.417 71.1599 150.626L71.0596 148.629ZM30.707 140.371L28.9745 139.372L26.5438 143.587L28.2764 144.586L30.0089 145.585L32.4396 141.37L30.707 140.371ZM28.2764 144.586L30.0081 143.585L24.2318 133.587L22.5 134.588L20.7682 135.588L26.5446 145.586L28.2764 144.586ZM22.5 134.588L22.5007 136.588L34.0476 136.584L34.0469 134.584L34.0462 132.584L22.4993 132.588L22.5 134.588ZM34.0469 134.584L32.3146 133.584L29.9806 137.629L31.7129 138.629L33.4452 139.628L35.7792 135.584L34.0469 134.584ZM31.7129 138.629L30.8997 140.456C40.4565 144.709 55.8349 149.393 71.0593 148.628L70.959 146.631L70.8587 144.633C56.4767 145.355 41.7449 140.905 32.5261 136.802L31.7129 138.629ZM70.959 146.631L71.0593 148.628C86.6008 147.848 102.053 141.373 110.837 122.961L109.032 122.1L107.227 121.238C99.2295 138.003 85.3268 143.907 70.8587 144.633L70.959 146.631ZM109.032 122.1L109.721 120.222L105.323 118.608L104.634 120.485L103.945 122.363L108.343 123.977L109.032 122.1ZM104.634 120.485L105.915 122.021L114.781 114.624L113.5 113.088L112.219 111.552L103.353 118.95L104.634 120.485ZM113.5 113.088L111.529 113.43L113.503 124.807L115.474 124.465L117.444 124.123L115.471 112.746L113.5 113.088Z" fill="black" mask="url(#path-3-outside-1_2708_656)"/>
</svg>
